/* XPM */
static char * neurai32_xpm[] = {
"32 33 164 2",
"  	c None",
". 	c #531872",
"+ 	c #694A81",
"@ 	c #78608B",
"# 	c #7C678F",
"$ 	c #531972",
"% 	c #4E016F",
"& 	c #6C4F84",
"* 	c #B2A9BB",
"= 	c #D8D4DC",
"- 	c #E9E7EB",
"; 	c #F0EEF1",
"> 	c #F3F2F4",
", 	c #6D5084",
"' 	c #4E006F",
") 	c #806C92",
"! 	c #C5BECB",
"~ 	c #F7F6F8",
"{ 	c #FFFFFF",
"] 	c #5B3077",
"^ 	c #BAB1C2",
"/ 	c #F3F1F4",
"( 	c #5B3178",
"_ 	c #6D5083",
": 	c #D0CAD5",
"< 	c #FEFEFE",
"[ 	c #EEEDF0",
"} 	c #DDDAE0",
"| 	c #E8E6E9",
"1 	c #FCFCFD",
"2 	c #E7E5E9",
"3 	c #EFEEF0",
"4 	c #D0CBD5",
"5 	c #DCD9E0",
"6 	c #E0DDE2",
"7 	c #B2ABB9",
"8 	c #DEDCE1",
"9 	c #C7C2CC",
"0 	c #CEC9D2",
"a 	c #CDC8D0",
"b 	c #C8C3CC",
"c 	c #B2AAB8",
"d 	c #E1DFE3",
"e 	c #CFCAD5",
"f 	c #A79EAF",
"g 	c #F8F7F8",
"h 	c #FCFCFC",
"i 	c #A59CAE",
"j 	c #FBFBFC",
"k 	c #A59CAD",
"l 	c #A89FB0",
"m 	c #B9B1C1",
"n 	c #FEFDFE",
"o 	c #A69DAE",
"p 	c #F9F8F9",
"q 	c #FDFCFD",
"r 	c #998FA3",
"s 	c #DAD6DC",
"t 	c #FBFAFC",
"u 	c #FDFDFD",
"v 	c #F8F8F9",
"w 	c #7F6B92",
"x 	c #F2F1F4",
"y 	c #CFCBD3",
"z 	c #A49BAD",
"A 	c #C4BFC9",
"B 	c #593A6F",
"C 	c #7D6D8B",
"D 	c #F1F0F2",
"E 	c #B7B0BD",
"F 	c #E1DFE4",
"G 	c #A39AAB",
"H 	c #D0CCD4",
"I 	c #C4BDCB",
"J 	c #DAD8DE",
"K 	c #440062",
"L 	c #4D2267",
"M 	c #460663",
"N 	c #450062",
"O 	c #460462",
"P 	c #A79FAF",
"Q 	c #BEB8C3",
"R 	c #420061",
"S 	c #4D2167",
"T 	c #6C4E83",
"U 	c #F7F6F7",
"V 	c #450162",
"W 	c #460763",
"X 	c #CAC5CF",
"Y 	c #410060",
"Z 	c #6B4E83",
"` 	c #B1A7BA",
" .	c #6A537C",
"..	c #E8E7EA",
"+.	c #521572",
"@.	c #D7D3DB",
"#.	c #470A63",
"$.	c #430061",
"%.	c #90849B",
"&.	c #F9F7F9",
"*.	c #684880",
"=.	c #E8E6EB",
"-.	c #9A8FA3",
";.	c #B3ACBA",
">.	c #E8E6EA",
",.	c #674780",
"'.	c #765F8A",
").	c #EFEEF1",
"!.	c #CAC6CF",
"~.	c #4F2568",
"{.	c #5A3C70",
"].	c #DBD8DE",
"^.	c #7C668F",
"/.	c #FAF9FA",
"(.	c #9D93A6",
"_.	c #440061",
":.	c #736083",
"<.	c #DBD9DE",
"[.	c #4E2568",
"}.	c #CAC6CE",
"|.	c #765E8A",
"1.	c #684780",
"2.	c #59396F",
"3.	c #470963",
"4.	c #6A547C",
"5.	c #B0A7BA",
"6.	c #3E005E",
"7.	c #420060",
"8.	c #D6D3D9",
"9.	c #887A94",
"0.	c #CCC8D0",
"a.	c #A9A1B0",
"b.	c #BBB5C1",
"c.	c #ABA3B2",
"d.	c #CCC7D0",
"e.	c #867893",
"f.	c #D6D3DA",
"g.	c #AAA3B2",
"h.	c #D9D6DC",
"i.	c #93879D",
"j.	c #FBFAFB",
"k.	c #ABA4B3",
"l.	c #FBFBFB",
"m.	c #FAF9FB",
"n.	c #FCFBFC",
"o.	c #FDFDFE",
"p.	c #D2CED6",
"q.	c #C0BAC5",
"r.	c #EAE8EB",
"s.	c #D6D2D9",
"t.	c #C1BCC7",
"u.	c #BEB9C4",
"v.	c #D4D0D7",
"w.	c #E3E1E5",
"x.	c #DAD7DD",
"y.	c #F9F9FA",
"z.	c #F9F9F9",
"A.	c #DAD6DD",
"B.	c #806B92",
"C.	c #6C4F83",
"D.	c #D8D4DB",
"E.	c #521872",
"F.	c #694A80",
"G.	c #77608B",
"                        . + @ # # @ + $                         ",
"                  % & * = - ; > > ; - = * , %                   ",
"              ' ) ! ~ { { { { { { { { { { ~ ! ) '               ",
"            ] ^ / { { { { { { { { { { { { { { / ^ (             ",
"          _ : < [ } | 1 { { { { { { { { 1 2 } 3 < 4 _           ",
"        _ 5 { 6 7 8 9 0 { { { { { { { { a b 8 c d { 5 _         ",
"      ] e { < f g { h i h { { { { { { j k 1 { ~ l < { e ]       ",
"    ' m < { n o p { q r s { { { { { { t i u { v f < { < m '     ",
"    w x { { { y z d A B C D { { { { { { E A F G H { { { x w     ",
"  % I { { { { J K L M N O P < { { { { { Q R S K J { { { { I %   ",
"  T U { { { { J V N N N N W X < { { { { Q Y N V J { { { { U Z   ",
"  ` { { { { { J V N N N N N  ...{ { { { Q Y N V J { { { { { `   ",
"+.@.{ { { { { J V N N #.N N $.%.&.{ { { Q Y N V J { { { { { @.+.",
"*.=.{ { { { { J V N $.-.B N N N ;.u { { Q Y N V J { { { { { >.,.",
"'.).{ { { { { J V N Y Q !.~.N N {.].{ { Q Y N V J { { { { { ).'.",
"^./ { { { { { J V N Y Q /.(.N N _.:.D { Q Y N V J { { { { { / ^.",
"^./ { { { { { J V N Y Q { D :._.N N (./.Q Y N V J { { { { { / ^.",
"'.).{ { { { { J V N Y Q { { <.{.N N [.}.Q Y N V J { { { { { ).|.",
"1.>.{ { { { { J V N Y Q { { u ;.N N N 2.-.$.N V J { { { { { >.,.",
"+.@.{ { { { { J V N Y Q { { { &.%.$.N N 3.N N V J { { { { { @.+.",
"  ` { { { { { J V N Y Q { { { { ..4.N N N N N V J { { { { { 5.  ",
"  Z U { { { { J V N Y Q { { { { < X W N N N N V J { { { { U Z   ",
"  % I { { { { J _.$.6.Q { { { { { < P O N 7.$._.J { { { { I %   ",
"    w x { { { 8.9.0.a.b.{ { { { { { D C S c.d.e.f.{ { { x w     ",
"    ' m < { < g./ { /.o u { { { { { { h.i.j.{ D k.< { < m '     ",
"      ] e { u k h { < k l.{ { { { { { m.o < { n.k o.{ e ]       ",
"        _ 5 { p.q.r.s.t.{ { { { { { { { q.8.r.u.v.{ 5 _         ",
"          _ e q w.y x.y.{ { { { { { { { z.A.y w.q e _           ",
"            ] ^ / { { { { { { { { { { { { { { / ^ ]             ",
"              ' B.! ~ { { { { { { { { { { ~ ! ) '               ",
"                  % C.* D.- ; > > ; - = * & %                   ",
"                        E.F.G.# # G.F..                         ",
"                                                                "};
