/* XPM */
static char * neurai64_xpm[] = {
"65 65 233 2",
"  	c None",
". 	c #4E006F",
"+ 	c #4D006F",
"@ 	c #4E016F",
"# 	c #5D3378",
"$ 	c #775F8B",
"% 	c #9C8EA9",
"& 	c #B5ABBD",
"* 	c #C3BCCA",
"= 	c #C9C3CF",
"- 	c #9C8FA8",
"; 	c #775F8C",
"> 	c #5D3478",
", 	c #5B3078",
"' 	c #A093AC",
") 	c #D2CDD7",
"! 	c #EEECF0",
"~ 	c #FDFCFD",
"{ 	c #FFFFFF",
"] 	c #5C3178",
"^ 	c #6D5084",
"/ 	c #BBB3C3",
"( 	c #F0EFF2",
"_ 	c #F1EFF2",
": 	c #5B2F77",
"< 	c #B3AABC",
"[ 	c #F4F3F5",
"} 	c #5B3077",
"| 	c #806B92",
"1 	c #E3DFE6",
"2 	c #806C93",
"3 	c #A195AD",
"4 	c #F7F5F7",
"5 	c #FBFBFC",
"6 	c #FCFCFC",
"7 	c #FCFBFC",
"8 	c #F7F6F7",
"9 	c #A295AD",
"0 	c #511171",
"a 	c #B3A9BB",
"b 	c #FDFDFD",
"c 	c #C8C3CD",
"d 	c #7D6D8C",
"e 	c #7A6989",
"f 	c #80708E",
"g 	c #CECAD2",
"h 	c #FEFEFE",
"i 	c #FEFDFE",
"j 	c #CDC8D1",
"k 	c #7F6F8D",
"l 	c #7E6D8C",
"m 	c #CAC5CE",
"n 	c #FCFCFD",
"o 	c #C2BCC7",
"p 	c #958AA0",
"q 	c #ECEBEE",
"r 	c #FAFAFB",
"s 	c #E9E7EB",
"t 	c #8C7F98",
"u 	c #CEC9D2",
"v 	c #CBC6CF",
"w 	c #8F829A",
"x 	c #EAE8EC",
"y 	c #ECEAED",
"z 	c #93879E",
"A 	c #C5BFC9",
"B 	c #F8F8F9",
"C 	c #796688",
"D 	c #F2F1F3",
"E 	c #EDEBEE",
"F 	c #7D6C8C",
"G 	c #7B698A",
"H 	c #EEEDEF",
"I 	c #F9F8FA",
"J 	c #A194AD",
"K 	c #F6F5F7",
"L 	c #F1F0F2",
"M 	c #81718F",
"N 	c #7A6889",
"O 	c #F5F3F6",
"P 	c #7E6E8C",
"Q 	c #FBFAFB",
"R 	c #7E6B8C",
"S 	c #F3F1F4",
"T 	c #5A2F77",
"U 	c #E2DFE5",
"V 	c #F8F7F8",
"W 	c #776487",
"X 	c #EFEDF0",
"Y 	c #57356E",
"Z 	c #B9B2BF",
"` 	c #F3F2F4",
" .	c #B2A8BB",
"..	c #B3ADBA",
"+.	c #9D93A7",
"@.	c #93879D",
"#.	c #450062",
"$.	c #512A6A",
"%.	c #DEDBE0",
"&.	c #BFB9C4",
"*.	c #968AA0",
"=.	c #EFEEF0",
"-.	c #9B90A4",
";.	c #B6AFBC",
">.	c #6C4E83",
",.	c #F4F2F5",
"'.	c #CBC8D0",
").	c #450162",
"!.	c #5D4072",
"~.	c #715D81",
"{.	c #5A3C70",
"].	c #715D82",
"^.	c #D6D2D9",
"/.	c #5B3D71",
"(.	c #5C3F72",
"_.	c #F3F2F5",
":.	c #BAB1C2",
"<.	c #A097A9",
"[.	c #FDFDFE",
"}.	c #F0EEF1",
"|.	c #470D63",
"1.	c #C9C4CE",
"2.	c #5A2E77",
"3.	c #9E91AA",
"4.	c #5D4073",
"5.	c #D1CBD6",
"6.	c #847591",
"7.	c #EDEBEF",
"8.	c #450262",
"9.	c #B4ADBB",
"0.	c #FFFEFF",
"a.	c #755C8A",
"b.	c #56346E",
"c.	c #4D2067",
"d.	c #D8D4DB",
"e.	c #9A8CA6",
"f.	c #C0BAC5",
"g.	c #664E79",
"h.	c #6E597F",
"i.	c #F1F0F3",
"j.	c #998BA6",
"k.	c #B2A9BB",
"l.	c #D4D0D8",
"m.	c #4D1F67",
"n.	c #988DA2",
"o.	c #C2BAC8",
"p.	c #ACA3B3",
"q.	c #481064",
"r.	c #C5C0CA",
"s.	c #C1BAC8",
"t.	c #C8C1CE",
"u.	c #F7F6F8",
"v.	c #57366E",
"w.	c #E4E2E6",
"x.	c #58366E",
"y.	c #998DA3",
"z.	c #4C1F67",
"A.	c #D4D0D7",
"B.	c #9A8BA6",
"C.	c #F2F0F3",
"D.	c #664D79",
"E.	c #56336D",
"F.	c #857692",
"G.	c #D0CBD6",
"H.	c #5E4073",
"I.	c #A197A9",
"J.	c #470A63",
"K.	c #50296A",
"L.	c #460663",
"M.	c #725D82",
"N.	c #460763",
"O.	c #51296A",
"P.	c #470963",
"Q.	c #C2BDC7",
"R.	c #766486",
"S.	c #D7D3DA",
"T.	c #D3CFD6",
"U.	c #6C567E",
"V.	c #DEDBE1",
"W.	c #746184",
"X.	c #C3BEC8",
"Y.	c #80718E",
"Z.	c #E8E5EA",
"`.	c #E1DEE3",
" +	c #8A7C96",
".+	c #4E2368",
"++	c #E3E0E5",
"@+	c #E5E3E7",
"#+	c #837490",
"$+	c #FBFBFB",
"%+	c #806A92",
"&+	c #806F8E",
"*+	c #FAF9FA",
"=+	c #796788",
"-+	c #7B6B8A",
";+	c #7D6A8B",
">+	c #7F6A92",
",+	c #F5F5F6",
"'+	c #776386",
")+	c #FAFAFA",
"!+	c #F5F4F6",
"~+	c #766286",
"{+	c #766386",
"]+	c #F6F6F7",
"^+	c #A79DAF",
"/+	c #B0A8B7",
"(+	c #B1AAB8",
"_+	c #B3ABB9",
":+	c #B6AFBD",
"<+	c #AAA1B1",
"[+	c #9C91A5",
"}+	c #867792",
"|+	c #A49BAC",
"1+	c #827290",
"2+	c #A49AAD",
"3+	c #A298AB",
"4+	c #847592",
"5+	c #9E93A7",
"6+	c #E8E6EA",
"7+	c #DBD8DE",
"8+	c #EAE8EB",
"9+	c #EAE7EB",
"0+	c #B3A9BC",
"a+	c #6C4F84",
"b+	c #BBB3C2",
"c+	c #F0EEF2",
"d+	c #6D4F84",
"e+	c #D2CDD6",
"f+	c #EEECEF",
"g+	c #5C3378",
"h+	c #775E8B",
"i+	c #9C8EA8",
"j+	c #B4ABBD",
"                                                                                                                                  ",
"                                                                                                                                  ",
"                                                                                                                                  ",
"                                                                                                                                  ",
"                                                                                                                                  ",
"                                                                                                                                  ",
"                                                                                                                                  ",
"                                                                                                                                  ",
"                                                      . . . . + + . . . .                                                         ",
"                                                . @ # $ % & * = = * & - ; > @ .                                                   ",
"                                          . @ , ' ) ! ~ { { { { { { { { ~ ! ) ' ] @ .                                             ",
"                                        + ^ / ( { { { { { { { { { { { { { { { { _ / ^ +                                           ",
"                                    . : < [ { { { { { { { { { { { { { { { { { { { { [ < } .                                       ",
"                                  . | 1 { { { { { { { { { { { { { { { { { { { { { { { { 1 2 .                                     ",
"                                @ 3 4 { { 5 [ 6 { { { { { { { { { { { { { { { { 7 [ 7 { { 8 9 @                                   ",
"                              0 a 7 { b c d e f g h { { { { { { { { { { { { i j k e l m b { 7 a 0                                 ",
"                            @ a n { { o p q r s t u { { { { { { { { { { { { v w x r y z A { { n a @                               ",
"                          . 3 7 { { B C D { { { E F b { { { { { { { { { { 6 G H { { { _ e I { { 7 J .                             ",
"                        . | K { { { L M h { { { r N [ { { { { { { { { { { O P Q { { { i R S { { { K | .                           ",
"                        T U { { { { V W [ { { { X Y Z h { { { { { { { { { 7 C ( { { { ` C B { { { { U T                           ",
"                      +  .{ { { { { { ..+.L h X @.#.$.%.{ { { { { { { { { { &.*.=.h _ -.;.{ { { { { {  .+                         ",
"                    . >.,.{ { { { { { '.).!.~.{.#.#.#.].` { { { { { { { { { ^.#./.].(.).'.{ { { { { { _.>..                       ",
"                    @ :.{ { { { { { { '.).#.#.#.#.#.#.#.<.[.{ { { { { { { { ^.#.#.#.#.).'.{ { { { { { { :.@                       ",
"                    : }.{ { { { { { { '.).#.#.#.#.#.#.#.|.1.{ { { { { { { { ^.#.#.#.#.).'.{ { { { { { { }.2.                      ",
"                  . 3.{ { { { { { { { '.).#.#.#.#.#.#.#.#.4.s { { { { { { { ^.#.#.#.#.).'.{ { { { { { { { 3..                     ",
"                  . 5.{ { { { { { { { '.).#.#.#.#.#.#.#.#.#.6.B { { { { { { ^.#.#.#.#.).'.{ { { { { { { { 5..                     ",
"                  ] 7.{ { { { { { { { '.).#.#.#.#.#.#.#.#.#.8.9.0.{ { { { { ^.#.#.#.#.).'.{ { { { { { { { 7.]                     ",
"                . a.n { { { { { { { { '.).#.#.#.#.b.#.#.#.#.#.c.d.{ { { { { ^.#.#.#.#.).'.{ { { { { { { { 6 a..                   ",
"                . e.{ { { { { { { { { '.).#.#.#.#.f.g.#.#.#.#.#.h.i.{ { { { ^.#.#.#.#.).'.{ { { { { { { { { j..                   ",
"                . k.{ { { { { { { { { '.).#.#.#.#.^.l.m.#.#.#.#.#.n.7 { { { ^.#.#.#.#.).'.{ { { { { { { { { k..                   ",
"                . o.{ { { { { { { { { '.).#.#.#.#.^.h p.#.#.#.#.#.q.r.{ { { ^.#.#.#.#.).'.{ { { { { { { { { s..                   ",
"                + t.{ { { { { { { { { '.).#.#.#.#.^.{ u.f #.#.#.#.#.v.w.{ { ^.#.#.#.#.).'.{ { { { { { { { { t.+                   ",
"                + t.{ { { { { { { { { '.).#.#.#.#.^.{ { w.x.#.#.#.#.#.f u.{ ^.#.#.#.#.).'.{ { { { { { { { { t.+                   ",
"                . s.{ { { { { { { { { '.).#.#.#.#.^.{ { { r.q.#.#.#.#.#.p.h ^.#.#.#.#.).'.{ { { { { { { { { s..                   ",
"                . k.{ { { { { { { { { '.).#.#.#.#.^.{ { { 6 y.#.#.#.#.#.z.A.^.#.#.#.#.).'.{ { { { { { { { {  ..                   ",
"                . B.{ { { { { { { { { '.).#.#.#.#.^.{ { { { C.h.#.#.#.#.#.D.f.#.#.#.#.).'.{ { { { { { { { { j..                   ",
"                . a.6 { { { { { { { { '.).#.#.#.#.^.{ { { { { d.c.#.#.#.#.#.E.#.#.#.#.).'.{ { { { { { { { 6 a..                   ",
"                  ] 7.{ { { { { { { { '.).#.#.#.#.^.{ { { { { 0.9.8.#.#.#.#.#.#.#.#.#.).'.{ { { { { { { { 7.]                     ",
"                  . 5.{ { { { { { { { '.).#.#.#.#.^.{ { { { { { B F.#.#.#.#.#.#.#.#.#.).'.{ { { { { { { { G..                     ",
"                  . 3.{ { { { { { { { '.).#.#.#.#.^.{ { { { { { { s H.#.#.#.#.#.#.#.#.).'.{ { { { { { { { 3..                     ",
"                    2.}.{ { { { { { { '.).#.#.#.#.^.{ { { { { { { { 1.|.#.#.#.#.#.#.#.).'.{ { { { { { { }.2.                      ",
"                    @ :.{ { { { { { { '.).#.#.#.#.^.{ { { { { { { { [.I.#.#.#.#.#.#.#.).'.{ { { { { { { :.@                       ",
"                    . >._.{ { { { { { '.).J.K.L.#.^.{ { { { { { { { { ` M.#.#.#.N.O.P.).'.{ { { { { { _.>..                       ",
"                      +  .{ { { { { { Q.R.S.x T.U.g { { { { { { { { { { V.$.#.h.A.x ^.W.X.{ { { { { {  .+                         ",
"                        T U { { { { r Y.Z.{ { { `. +h { { { { { { { { { h Z .+++{ { { @+#+$+{ { { { U 2.                          ",
"                        . %+K { { { D &+h { { { *+=+u.{ { { { { { { { { { S -+Q { { { i ;+` { { { K >+.                           ",
"                          . J 7 { { ,+'+)+{ { { !+~+$+{ { { { { { { { { { *+~+K { { { I {+]+{ { 7 J .                             ",
"                            @ k.n { h ^+Z 6 { Q /+9.{ { { { { { { { { { { { (+_+$+{ 6 :+<+h { n a @                               ",
"                              0 k.7 { ]+[+}+|+1+2+B { { { { { { { { { { { { V 3+#+|+4+5+u.{ 7 a 0                                 ",
"                                @ 3 K { b 6+7+8+h { { { { { { { { { { { { { { h 9+7+6+b { K 3 @                                   ",
"                                  . | 1 { { { { { { { { { { { { { { { { { { { { { { { { 1 | .                                     ",
"                                    . : 0+,.{ { { { { { { { { { { { { { { { { { { { [ < : .                                       ",
"                                        + a+b+c+{ { { { { { { { { { { { { { { { _ / d++                                           ",
"                                          . @ } ' e+f+~ { { { { { { { { ~ ! ) ' , @ .                                             ",
"                                                . @ g+h+i+j+* = = * j+i+$ # @ .                                                   ",
"                                                      . . . . + + . . . .                                                         ",
"                                                                                                                                  ",
"                                                                                                                                  ",
"                                                                                                                                  ",
"                                                                                                                                  ",
"                                                                                                                                  ",
"                                                                                                                                  ",
"                                                                                                                                  ",
"                                                                                                                                  ",
"                                                                                                                                  "};
