/* XPM */
static char * neurai16_xpm[] = {
"16 17 80 1",
" 	c None",
".	c #978AA5",
"+	c #BDB6C4",
"@	c #C4BECA",
"#	c #988AA5",
"$	c #D5D1DA",
"%	c #F9F8F9",
"&	c #FEFEFE",
"*	c #A69CB1",
"=	c #E7E4E9",
"-	c #DCD9DF",
";	c #E2E0E4",
">	c #FFFFFF",
",	c #E2DFE4",
"'	c #E7E5E9",
")	c #F0EFF2",
"!	c #DDDADF",
"~	c #F5F4F6",
"{	c #D5D2D8",
"]	c #F2F1F3",
"^	c #FAFAFB",
"/	c #D9D6DC",
"(	c #DDDAE0",
"_	c #D6D2DB",
":	c #E8E7EA",
"<	c #9E95A8",
"[	c #7F708D",
"}	c #AAA2B1",
"|	c #FCFCFC",
"1	c #FDFCFD",
"2	c #AFA8B6",
"3	c #9E95A7",
"4	c #9789A4",
"5	c #F9F9FA",
"6	c #EAE9EC",
"7	c #53306B",
"8	c #450062",
"9	c #502869",
"0	c #CFCBD3",
"a	c #FDFDFD",
"b	c #968CA0",
"c	c #BCB5C4",
"d	c #532F6B",
"e	c #634A77",
"f	c #522D6A",
"g	c #6B567D",
"h	c #E9E7EA",
"i	c #BCB5C3",
"j	c #C4BDCA",
"k	c #93889D",
"l	c #B7B1BD",
"m	c #4B1B66",
"n	c #92879D",
"o	c #F6F5F6",
"p	c #92889D",
"q	c #9689A4",
"r	c #B84C59",
"s	c #D3CFD8",
"t	c #E9E8EB",
"u	c #90859B",
"v	c #A9A2B1",
"w	c #736183",
"x	c #90849B",
"y	c #C68E85",
"z	c #F0EEF1",
"A	c #F5F4F5",
"B	c #D8D5DB",
"C	c #FBFBFB",
"D	c #F1F0F2",
"E	c #D4D0D7",
"F	c #F4F3F5",
"G	c #E3E1E6",
"H	c #DCD9DE",
"I	c #DFDCE2",
"J	c #DFDCE1",
"K	c #DBD8DE",
"L	c #E4E1E6",
"M	c #9889A5",
"N	c #D5D0D9",
"O	c #F8F8F9",
"     .+@@+.     ",
"   #$%&&&&%$#   ",
"  *=-;&>>&,-'*  ",
" .)!~{]>>^/~(). ",
" _>:<[}|>123:>_ ",
"45>67890&ab76>54",
"c&>6defgh1bd6>&i",
"j&>6dklmnobd6>&j",
"j&>6dbopmlkd6>&j",
"i&>6db1hgfed6>&i",
"45>6dba&098d6>5q",
"rs>tuv1>|}wxt>_ ",
" yz!ABC>>DEF(). ",
"  *GHI&>>&JKL*  ",
"   MNO&&&&ON#   ",
"     .+@@+.     ",
"                "};
